<svg xmlns="http://www.w3.org/2000/svg" width="46" height="46" fill="none"><g clip-path="url(#a)"><path fill="#41B4E6" d="M23 46.002c12.702 0 23-10.298 23-23 0-12.703-10.298-23-23-23-12.703 0-23 10.297-23 23 0 12.702 10.297 23 23 23Z"/><path fill="#0091C8" d="M46 23c0-.56-.021-1.115-.06-1.666l-9.533-9.532L9.593 22.349l10.26 10.26.134.484.174-.175-.174.175 11.349 11.35C39.916 41.102 46 32.762 46 23Z"/><path fill="#fff" d="M20.766 26.351 31.16 34.2l5.247-22.397L9.593 22.349l8.16 2.703 14.89-9.988L20.766 26.35Z"/><path fill="#D2D2D7" d="m17.752 25.052 2.235 8.041.78-6.742 11.876-11.287-14.89 9.988Z"/><path fill="#B9B9BE" d="m24.145 28.902-4.158 4.191.78-6.742 3.378 2.55Z"/></g><defs><clipPath id="a"><path fill="#fff" d="M0 0h46v46H0z"/></clipPath></defs></svg>